<?xml version="1.0" standalone="no"?>
<!DOCTYPE svg PUBLIC "-//W3C//DTD SVG 20010904//EN"
 "http://www.w3.org/TR/2001/REC-SVG-20010904/DTD/svg10.dtd">
<svg version="1.0" xmlns="http://www.w3.org/2000/svg"
 width="1280.000000pt" height="985.000000pt" viewBox="0 0 1280.000000 985.000000"
 preserveAspectRatio="xMidYMid meet">
<g transform="translate(0.000000,985.000000) scale(0.100000,-0.100000)"
fill="#000000" stroke="none">
<path d="M3099 9812 l-105 -27 -106 -93 c-58 -51 -125 -117 -148 -147 -62 -81
-55 -78 -167 -59 -54 9 -103 22 -110 28 -7 6 -33 72 -59 146 -25 74 -50 139
-54 143 -4 5 -18 -47 -30 -115 -52 -293 -64 -313 -255 -447 -73 -51 -174 -131
-225 -177 -64 -60 -97 -84 -108 -79 -10 3 -59 22 -110 42 -89 35 -93 38 -105
77 -8 29 -11 118 -9 314 1 158 -1 271 -6 268 -5 -3 -34 -36 -65 -73 l-55 -68
-20 -165 -20 -165 40 -163 41 -162 61 -33 61 -32 3 -54 c4 -67 -4 -101 -22
-101 -8 0 -94 34 -192 75 -98 42 -182 74 -186 73 -10 -4 212 -224 280 -279
l44 -35 -7 -58 c-4 -33 -13 -60 -21 -63 -7 -2 -105 51 -218 118 l-205 123 -50
106 c-27 58 -66 141 -87 185 -20 44 -38 75 -41 69 -2 -6 10 -72 26 -147 21
-99 26 -139 17 -145 -6 -4 -64 -5 -128 -3 -65 2 -118 1 -118 -3 0 -3 53 -22
118 -42 69 -22 154 -57 206 -87 103 -58 102 -69 -6 -81 -53 -5 -214 -57 -269
-86 -23 -13 -249 -326 -249 -346 0 -9 9 -51 20 -95 12 -44 18 -84 16 -88 -3
-5 -80 -61 -171 -125 -90 -64 -167 -121 -170 -126 -9 -14 14 -13 168 11 100
16 141 19 149 11 16 -16 -7 -166 -36 -249 -29 -78 -42 -93 -131 -150 -113 -73
-270 -198 -254 -201 8 -1 87 20 176 48 88 27 163 50 167 50 13 0 5 -44 -33
-179 l-39 -139 14 -169 14 -168 66 -165 c54 -134 92 -209 205 -397 77 -128
160 -256 185 -285 24 -29 42 -58 40 -65 -3 -7 -58 -102 -122 -210 -64 -109
-119 -202 -121 -206 -3 -4 55 22 127 58 73 36 138 64 146 61 9 -3 14 -21 14
-50 0 -44 -2 -46 -60 -86 -33 -22 -60 -45 -60 -49 0 -5 26 -12 58 -16 90 -11
92 -13 92 -106 l0 -80 55 -58 c48 -50 56 -66 66 -117 16 -87 13 -83 56 -74 51
12 58 1 28 -40 -14 -19 -25 -38 -25 -42 0 -4 30 -8 68 -8 l67 0 127 -143 c170
-191 348 -407 359 -435 5 -13 9 -36 9 -52 0 -49 9 -60 50 -60 46 0 50 -5 57
-76 l6 -56 36 8 c72 14 71 15 136 -94 34 -56 65 -105 68 -108 3 -4 38 -10 78
-14 61 -7 80 -5 126 12 29 12 56 18 60 14 10 -10 -112 -130 -182 -181 -33 -23
-141 -83 -240 -133 -206 -103 -182 -80 -355 -342 -56 -85 -113 -167 -128 -182
-27 -29 -91 -57 -180 -78 -60 -14 -131 -58 -212 -132 -30 -27 -111 -87 -180
-131 -111 -73 -620 -448 -677 -500 -40 -36 -17 -30 64 17 91 52 129 60 346 77
200 15 331 8 537 -31 91 -17 175 -28 187 -25 34 8 63 -26 63 -73 0 -21 6 -46
13 -56 13 -18 20 -17 158 29 79 26 218 76 309 112 191 75 639 291 726 350 62
43 265 226 291 263 8 12 33 35 56 51 34 24 50 29 100 29 101 0 133 -15 222
-106 87 -88 122 -108 291 -167 130 -46 205 -84 290 -148 38 -29 142 -94 232
-146 174 -100 367 -224 418 -270 40 -36 119 -135 492 -618 362 -469 387 -497
463 -520 l57 -16 187 -300 c103 -165 189 -298 191 -296 3 3 74 1882 74 1944 0
20 55 -23 197 -151 94 -84 198 -172 232 -195 84 -57 451 -245 451 -232 0 7
-79 125 -176 263 -256 365 -292 445 -479 1088 -59 203 -93 304 -111 327 -35
47 -99 80 -195 104 -103 25 -111 29 -387 202 -123 76 -226 137 -228 134 -3 -3
2 -86 10 -185 19 -215 19 -202 5 -202 -20 0 -179 151 -179 170 0 9 11 66 24
126 20 91 46 374 46 501 0 31 213 269 479 533 202 201 464 494 483 538 21 52
-7 296 -49 427 -18 56 -36 91 -61 117 l-35 37 26 27 c26 25 27 32 27 125 0
114 -7 139 -55 180 -19 17 -35 36 -35 41 0 6 18 30 40 54 l40 44 0 102 c0 143
-35 253 -101 318 -75 75 -77 80 -70 206 l6 111 70 77 c39 43 89 91 112 108 24
16 43 32 43 36 0 3 -12 47 -26 98 l-26 91 -93 93 -92 92 -244 118 c-239 115
-244 119 -266 161 -26 51 -143 346 -143 360 0 28 30 -6 125 -143 58 -84 119
-173 136 -197 16 -24 32 -41 35 -39 2 3 -41 125 -96 271 -55 147 -100 272
-100 277 0 6 4 10 9 10 5 0 88 -87 184 -193 l176 -193 282 -147 c155 -82 286
-146 291 -145 5 2 -66 67 -159 144 -170 143 -561 496 -576 521 -13 21 31 16
66 -9 43 -29 167 -132 372 -308 242 -208 249 -209 65 -7 -115 126 -115 127
-156 239 l-41 113 -119 62 c-65 33 -120 68 -122 75 -2 11 18 18 85 27 187 26
234 34 229 39 -3 2 -96 10 -207 17 -143 9 -205 17 -214 26 -7 8 -26 55 -43
106 -22 68 -27 94 -19 101 7 5 76 31 155 57 79 26 141 50 138 53 -3 3 -79 19
-168 36 -154 30 -200 49 -146 60 223 50 385 89 391 95 9 9 -81 17 -314 27
-163 7 -185 13 -154 42 11 10 177 135 368 278 192 142 345 260 340 261 -5 2
-193 -91 -417 -207 -224 -115 -409 -210 -411 -210 -9 0 -58 58 -80 95 -43 72
-42 80 25 193 34 57 59 106 56 109 -3 4 -64 -15 -135 -40 -71 -26 -137 -47
-146 -47 -9 0 -64 28 -122 62 l-106 61 -256 34 c-245 32 -265 33 -471 27
l-214 -7 -156 -85 -155 -85 -122 11 c-116 10 -126 13 -185 49 -58 36 -66 38
-140 38 -49 -1 -78 3 -78 10 0 6 39 49 88 97 67 67 106 95 170 127 119 59 116
61 -39 23z m-29 -2146 c0 -19 -45 23 -48 45 -2 23 -2 23 23 -6 14 -16 25 -34
25 -39z m158 -150 c34 -51 40 -76 19 -76 -13 0 -15 4 -62 84 -25 43 -26 48 -9
44 10 -2 34 -25 52 -52z m-1380 -1381 c-11 -12 -38 8 -38 28 l0 21 22 -21 c12
-13 19 -25 16 -28z m768 30 c8 -21 -9 -88 -24 -93 -19 -6 -24 22 -12 67 11 42
26 53 36 26z m-564 -269 c17 -21 48 -42 85 -56 107 -42 90 -55 -27 -20 -75 22
-87 32 -96 78 -8 41 4 40 38 -2z m721 -546 c-3 -11 -7 -20 -9 -20 -2 0 -4 9
-4 20 0 11 4 20 9 20 5 0 7 -9 4 -20z"/>
<path d="M10187 6978 c-1543 -231 -1669 -249 -1681 -233 -14 20 -195 76 -338
105 -214 44 -393 43 -515 -1 -77 -28 -175 -127 -220 -221 -65 -133 -78 -209
-78 -438 0 -132 5 -220 13 -246 17 -57 143 -177 237 -225 131 -69 363 -131
487 -131 106 0 281 74 381 161 l53 46 254 39 c140 21 442 69 671 106 l417 68
103 -19 c57 -10 107 -19 110 -19 11 0 283 -200 296 -217 30 -39 90 -258 157
-577 40 -191 75 -348 77 -350 2 -2 148 26 324 63 250 53 319 70 318 82 -2 8
-34 115 -73 238 l-71 224 -11 176 -12 176 67 101 c60 89 79 108 172 178 58 43
105 80 105 82 0 2 -7 22 -16 44 -10 24 -13 45 -8 49 39 33 162 65 419 110 251
43 287 52 352 84 39 20 74 40 76 44 3 5 -1 64 -8 133 -9 92 -10 128 -1 137 6
6 119 30 251 52 132 23 249 43 261 46 17 4 22 14 27 57 3 29 9 68 13 85 l6 33
-43 -5 c-106 -12 -621 -37 -627 -31 -4 4 -14 39 -22 79 -15 70 -17 73 -65 105
-51 33 -94 49 -155 57 -19 2 -786 -109 -1703 -247z"/>
</g>
</svg>
